<mxfile host="app.diagrams.net" agent="Mozilla/5.0 (Macintosh; Intel Mac OS X 10_15_7) AppleWebKit/537.36 (KHTML, like Gecko) Chrome/137.0.0.0 Safari/537.36" version="27.0.9">
  <diagram name="Page-1" id="HH_gkr1EAKidsJxom6-6">
    <mxGraphModel grid="1" page="1" gridSize="10" guides="1" tooltips="1" connect="1" arrows="1" fold="1" pageScale="1" pageWidth="1600" pageHeight="900" math="0" shadow="0">
      <root>
        <mxCell id="0" />
        <mxCell id="1" parent="0" />
        <mxCell id="LPp9oAWKQeuI2uBcISef-27" value="" style="rounded=1;whiteSpace=wrap;html=1;fillColor=none;dashed=1;" vertex="1" parent="1">
          <mxGeometry x="760" y="160" width="420" height="400" as="geometry" />
        </mxCell>
        <mxCell id="LPp9oAWKQeuI2uBcISef-1" value="crm_cust_info" style="swimlane;fontStyle=0;childLayout=stackLayout;horizontal=1;startSize=30;horizontalStack=0;resizeParent=1;resizeParentMax=0;resizeLast=0;collapsible=1;marginBottom=0;whiteSpace=wrap;html=1;rounded=1;fillColor=#dae8fc;strokeColor=#6c8ebf;fontSize=22;" vertex="1" parent="1">
          <mxGeometry x="475" y="255" width="210" height="70" as="geometry" />
        </mxCell>
        <mxCell id="LPp9oAWKQeuI2uBcISef-2" value="cst_id" style="text;strokeColor=none;fillColor=none;align=left;verticalAlign=middle;spacingLeft=4;spacingRight=4;overflow=hidden;points=[[0,0.5],[1,0.5]];portConstraint=eastwest;rotatable=0;whiteSpace=wrap;html=1;fontSize=22;" vertex="1" parent="LPp9oAWKQeuI2uBcISef-1">
          <mxGeometry y="30" width="210" height="40" as="geometry" />
        </mxCell>
        <mxCell id="LPp9oAWKQeuI2uBcISef-5" value="Customer information" style="text;html=1;align=center;verticalAlign=middle;resizable=0;points=[];autosize=1;strokeColor=none;fillColor=none;fontSize=16;" vertex="1" parent="1">
          <mxGeometry x="490" y="220" width="180" height="30" as="geometry" />
        </mxCell>
        <mxCell id="LPp9oAWKQeuI2uBcISef-6" value="crm_prd_info" style="swimlane;fontStyle=0;childLayout=stackLayout;horizontal=1;startSize=30;horizontalStack=0;resizeParent=1;resizeParentMax=0;resizeLast=0;collapsible=1;marginBottom=0;whiteSpace=wrap;html=1;rounded=1;fillColor=#dae8fc;strokeColor=#6c8ebf;fontSize=22;" vertex="1" parent="1">
          <mxGeometry x="475" y="460" width="210" height="70" as="geometry" />
        </mxCell>
        <mxCell id="LPp9oAWKQeuI2uBcISef-7" value="prd_key" style="text;strokeColor=none;fillColor=none;align=left;verticalAlign=middle;spacingLeft=4;spacingRight=4;overflow=hidden;points=[[0,0.5],[1,0.5]];portConstraint=eastwest;rotatable=0;whiteSpace=wrap;html=1;fontSize=26;" vertex="1" parent="LPp9oAWKQeuI2uBcISef-6">
          <mxGeometry y="30" width="210" height="40" as="geometry" />
        </mxCell>
        <mxCell id="LPp9oAWKQeuI2uBcISef-8" value="Product information with current&lt;div&gt;and historical price&lt;/div&gt;" style="text;html=1;align=center;verticalAlign=middle;resizable=0;points=[];autosize=1;strokeColor=none;fillColor=none;fontSize=16;" vertex="1" parent="1">
          <mxGeometry x="455" y="405" width="250" height="50" as="geometry" />
        </mxCell>
        <mxCell id="LPp9oAWKQeuI2uBcISef-9" value="crm_sales_details" style="swimlane;fontStyle=0;childLayout=stackLayout;horizontal=1;startSize=30;horizontalStack=0;resizeParent=1;resizeParentMax=0;resizeLast=0;collapsible=1;marginBottom=0;whiteSpace=wrap;html=1;rounded=1;fillColor=#dae8fc;strokeColor=#6c8ebf;fontSize=22;" vertex="1" parent="1">
          <mxGeometry x="110" y="325" width="240" height="110" as="geometry" />
        </mxCell>
        <mxCell id="LPp9oAWKQeuI2uBcISef-10" value="sls_cust_id" style="text;strokeColor=none;fillColor=none;align=left;verticalAlign=middle;spacingLeft=4;spacingRight=4;overflow=hidden;points=[[0,0.5],[1,0.5]];portConstraint=eastwest;rotatable=0;whiteSpace=wrap;html=1;fontSize=22;" vertex="1" parent="LPp9oAWKQeuI2uBcISef-9">
          <mxGeometry y="30" width="240" height="40" as="geometry" />
        </mxCell>
        <mxCell id="LPp9oAWKQeuI2uBcISef-12" value="sla_prd_key" style="text;strokeColor=none;fillColor=none;align=left;verticalAlign=middle;spacingLeft=4;spacingRight=4;overflow=hidden;points=[[0,0.5],[1,0.5]];portConstraint=eastwest;rotatable=0;whiteSpace=wrap;html=1;fontSize=22;" vertex="1" parent="LPp9oAWKQeuI2uBcISef-9">
          <mxGeometry y="70" width="240" height="40" as="geometry" />
        </mxCell>
        <mxCell id="LPp9oAWKQeuI2uBcISef-11" value="Sales/ order details" style="text;html=1;align=center;verticalAlign=middle;resizable=0;points=[];autosize=1;strokeColor=none;fillColor=none;fontSize=16;" vertex="1" parent="1">
          <mxGeometry x="150" y="296" width="160" height="30" as="geometry" />
        </mxCell>
        <mxCell id="LPp9oAWKQeuI2uBcISef-13" style="edgeStyle=orthogonalEdgeStyle;rounded=0;orthogonalLoop=1;jettySize=auto;html=1;entryX=0;entryY=0.5;entryDx=0;entryDy=0;" edge="1" parent="1" source="LPp9oAWKQeuI2uBcISef-10" target="LPp9oAWKQeuI2uBcISef-2">
          <mxGeometry relative="1" as="geometry" />
        </mxCell>
        <mxCell id="LPp9oAWKQeuI2uBcISef-14" style="edgeStyle=orthogonalEdgeStyle;rounded=0;orthogonalLoop=1;jettySize=auto;html=1;entryX=0;entryY=0.5;entryDx=0;entryDy=0;" edge="1" parent="1" source="LPp9oAWKQeuI2uBcISef-12" target="LPp9oAWKQeuI2uBcISef-7">
          <mxGeometry relative="1" as="geometry" />
        </mxCell>
        <mxCell id="LPp9oAWKQeuI2uBcISef-15" value="erp_cust_az12" style="swimlane;fontStyle=0;childLayout=stackLayout;horizontal=1;startSize=30;horizontalStack=0;resizeParent=1;resizeParentMax=0;resizeLast=0;collapsible=1;marginBottom=0;whiteSpace=wrap;html=1;rounded=1;fillColor=#fff2cc;strokeColor=#d6b656;fontSize=22;" vertex="1" parent="1">
          <mxGeometry x="860" y="195" width="210" height="70" as="geometry" />
        </mxCell>
        <mxCell id="LPp9oAWKQeuI2uBcISef-16" value="cid" style="text;strokeColor=none;fillColor=none;align=left;verticalAlign=middle;spacingLeft=4;spacingRight=4;overflow=hidden;points=[[0,0.5],[1,0.5]];portConstraint=eastwest;rotatable=0;whiteSpace=wrap;html=1;fontSize=22;" vertex="1" parent="LPp9oAWKQeuI2uBcISef-15">
          <mxGeometry y="30" width="210" height="40" as="geometry" />
        </mxCell>
        <mxCell id="LPp9oAWKQeuI2uBcISef-17" value="Extra customer information (bday)" style="text;html=1;align=center;verticalAlign=middle;resizable=0;points=[];autosize=1;strokeColor=none;fillColor=none;fontSize=16;" vertex="1" parent="1">
          <mxGeometry x="835" y="160" width="260" height="30" as="geometry" />
        </mxCell>
        <mxCell id="LPp9oAWKQeuI2uBcISef-18" value="erp_loc_a101" style="swimlane;fontStyle=0;childLayout=stackLayout;horizontal=1;startSize=30;horizontalStack=0;resizeParent=1;resizeParentMax=0;resizeLast=0;collapsible=1;marginBottom=0;whiteSpace=wrap;html=1;rounded=1;fillColor=#fff2cc;strokeColor=#d6b656;fontSize=22;" vertex="1" parent="1">
          <mxGeometry x="860" y="325" width="210" height="70" as="geometry" />
        </mxCell>
        <mxCell id="LPp9oAWKQeuI2uBcISef-19" value="cid" style="text;strokeColor=none;fillColor=none;align=left;verticalAlign=middle;spacingLeft=4;spacingRight=4;overflow=hidden;points=[[0,0.5],[1,0.5]];portConstraint=eastwest;rotatable=0;whiteSpace=wrap;html=1;fontSize=22;" vertex="1" parent="LPp9oAWKQeuI2uBcISef-18">
          <mxGeometry y="30" width="210" height="40" as="geometry" />
        </mxCell>
        <mxCell id="LPp9oAWKQeuI2uBcISef-20" value="Extra customer information (country)" style="text;html=1;align=center;verticalAlign=middle;resizable=0;points=[];autosize=1;strokeColor=none;fillColor=none;fontSize=16;" vertex="1" parent="1">
          <mxGeometry x="825" y="290" width="280" height="30" as="geometry" />
        </mxCell>
        <mxCell id="LPp9oAWKQeuI2uBcISef-21" style="edgeStyle=orthogonalEdgeStyle;rounded=0;orthogonalLoop=1;jettySize=auto;html=1;entryX=0;entryY=0.5;entryDx=0;entryDy=0;" edge="1" parent="1" source="LPp9oAWKQeuI2uBcISef-2" target="LPp9oAWKQeuI2uBcISef-16">
          <mxGeometry relative="1" as="geometry" />
        </mxCell>
        <mxCell id="LPp9oAWKQeuI2uBcISef-22" style="edgeStyle=orthogonalEdgeStyle;rounded=0;orthogonalLoop=1;jettySize=auto;html=1;entryX=0;entryY=0.5;entryDx=0;entryDy=0;" edge="1" parent="1" source="LPp9oAWKQeuI2uBcISef-2" target="LPp9oAWKQeuI2uBcISef-19">
          <mxGeometry relative="1" as="geometry" />
        </mxCell>
        <mxCell id="LPp9oAWKQeuI2uBcISef-23" value="erp_px_cat_g1v2" style="swimlane;fontStyle=0;childLayout=stackLayout;horizontal=1;startSize=30;horizontalStack=0;resizeParent=1;resizeParentMax=0;resizeLast=0;collapsible=1;marginBottom=0;whiteSpace=wrap;html=1;rounded=1;fillColor=#fff2cc;strokeColor=#d6b656;fontSize=22;" vertex="1" parent="1">
          <mxGeometry x="860" y="460" width="210" height="70" as="geometry" />
        </mxCell>
        <mxCell id="LPp9oAWKQeuI2uBcISef-24" value="id" style="text;strokeColor=none;fillColor=none;align=left;verticalAlign=middle;spacingLeft=4;spacingRight=4;overflow=hidden;points=[[0,0.5],[1,0.5]];portConstraint=eastwest;rotatable=0;whiteSpace=wrap;html=1;fontSize=22;" vertex="1" parent="LPp9oAWKQeuI2uBcISef-23">
          <mxGeometry y="30" width="210" height="40" as="geometry" />
        </mxCell>
        <mxCell id="LPp9oAWKQeuI2uBcISef-25" style="edgeStyle=orthogonalEdgeStyle;rounded=0;orthogonalLoop=1;jettySize=auto;html=1;entryX=0;entryY=0.5;entryDx=0;entryDy=0;" edge="1" parent="1" source="LPp9oAWKQeuI2uBcISef-7" target="LPp9oAWKQeuI2uBcISef-24">
          <mxGeometry relative="1" as="geometry" />
        </mxCell>
        <mxCell id="LPp9oAWKQeuI2uBcISef-26" value="" style="rounded=1;whiteSpace=wrap;html=1;fillColor=none;dashed=1;" vertex="1" parent="1">
          <mxGeometry x="90" y="160" width="630" height="400" as="geometry" />
        </mxCell>
        <mxCell id="LPp9oAWKQeuI2uBcISef-28" value="CRM" style="text;html=1;align=center;verticalAlign=middle;resizable=0;points=[];autosize=1;strokeColor=none;fillColor=none;" vertex="1" parent="1">
          <mxGeometry x="380" y="560" width="50" height="30" as="geometry" />
        </mxCell>
        <mxCell id="LPp9oAWKQeuI2uBcISef-29" value="ERP" style="text;html=1;align=center;verticalAlign=middle;resizable=0;points=[];autosize=1;strokeColor=none;fillColor=none;" vertex="1" parent="1">
          <mxGeometry x="945" y="560" width="50" height="30" as="geometry" />
        </mxCell>
        <mxCell id="4mILsuvm4igvcf-w3I_e-1" value="Extra product information (categories)" style="text;html=1;align=center;verticalAlign=middle;resizable=0;points=[];autosize=1;strokeColor=none;fillColor=none;fontSize=16;" vertex="1" parent="1">
          <mxGeometry x="824" y="427" width="290" height="30" as="geometry" />
        </mxCell>
      </root>
    </mxGraphModel>
  </diagram>
</mxfile>
